<?xml version="1.0" standalone="no"?>
<!DOCTYPE svg PUBLIC "-//W3C//DTD SVG 20010904//EN"
 "http://www.w3.org/TR/2001/REC-SVG-20010904/DTD/svg10.dtd">
<svg version="1.0" xmlns="http://www.w3.org/2000/svg"
 width="700.000000pt" height="700.000000pt" viewBox="0 0 700.000000 700.000000"
 preserveAspectRatio="xMidYMid meet">
<metadata>
Created by potrace 1.11, written by Peter Selinger 2001-2013
</metadata>
<g transform="translate(0.000000,700.000000) scale(0.100000,-0.100000)"
fill="#000000" stroke="none">
<path d="M1750 6420 c0 -159 -3 -290 -7 -291 -5 -1 -87 -2 -183 -3 -100 -2
-199 -8 -230 -15 -204 -48 -378 -218 -432 -420 -19 -75 -20 -108 -22 -2171 -2
-1743 0 -2108 12 -2170 40 -221 220 -408 442 -461 83 -20 4212 -21 4320 -1
218 40 397 208 456 427 18 67 19 147 18 2190 l0 2120 -23 75 c-65 213 -240
374 -453 416 -18 4 -114 7 -213 8 l-180 2 -3 292 -2 292 -289 0 c-222 0 -290
-3 -293 -12 -2 -7 -3 -138 -3 -290 1 -272 1 -276 -19 -280 -12 -2 -536 -3
-1166 -3 l-1145 0 0 290 -1 290 -292 3 -292 2 0 -290z m3790 -1810 c3 -361 -1
-3144 -4 -3147 -5 -5 -4068 -5 -4073 1 -3 3 -6 2483 -3 3132 l0 70 2040 0
2040 0 0 -56z"/>
<path d="M3500 2771 l0 -729 729 0 729 0 0 729 0 729 -729 0 -729 0 0 -729z"/>
</g>
</svg>
